<svg xmlns="http://www.w3.org/2000/svg" width="384" height="384" viewBox="0 0 384 384">
  <defs>
    <linearGradient id="bg384" x1="0%" y1="0%" x2="100%" y2="100%">
      <stop offset="0%" style="stop-color:#1a73e8"/>
      <stop offset="50%" style="stop-color:#4285f4"/>
      <stop offset="100%" style="stop-color:#1a73e8"/>
    </linearGradient>
    <filter id="shadow384">
      <feDropShadow dx="0" dy="2" stdDeviation="6" flood-opacity="0.3"/>
    </filter>
  </defs>
  <rect width="384" height="384" rx="72" fill="url(#bg384)"/>
  
  <!-- Decorative elements -->
  <circle cx="100" cy="100" r="50" fill="rgba(255,255,255,0.1)"/>
  <circle cx="290" cy="290" r="70" fill="rgba(255,255,255,0.05)"/>
  
  <!-- Document icon -->
  <g transform="translate(100,70)" filter="url(#shadow384)">
    <rect x="0" y="0" width="184" height="240" rx="14" fill="white" opacity="0.95"/>
    
    <!-- Folded corner -->
    <path d="M148 0 L184 0 L184 36 L148 36 Z" fill="#e8f0fe"/>
    <path d="M148 0 L184 36 L148 36 Z" fill="#d2e3fc"/>
    
    <!-- Text lines -->
    <rect x="24" y="50" width="140" height="14" rx="4" fill="#1a73e8" opacity="0.9"/>
    <rect x="24" y="76" width="120" height="10" rx="3" fill="#5f6368" opacity="0.6"/>
    <rect x="24" y="96" width="150" height="10" rx="3" fill="#5f6368" opacity="0.6"/>
    <rect x="24" y="116" width="100" height="10" rx="3" fill="#5f6368" opacity="0.6"/>
    
    <!-- More lines -->
    <rect x="24" y="142" width="140" height="8" rx="3" fill="#dadce0" opacity="0.7"/>
    <rect x="24" y="160" width="130" height="8" rx="3" fill="#dadce0" opacity="0.7"/>
    <rect x="24" y="178" width="145" height="8" rx="3" fill="#dadce0" opacity="0.7"/>
    <rect x="24" y="196" width="110" height="8" rx="3" fill="#dadce0" opacity="0.7"/>
  </g>
  
  <!-- Enterprise badge -->
  <rect x="242" y="320" width="100" height="28" rx="14" fill="rgba(255,255,255,0.2)"/>
  <text x="292" y="340" text-anchor="middle" font-family="Arial" font-size="12" fill="white" opacity="0.8">
    ENTERPRISE
  </text>
</svg>
